<svg id="Layer_1" data-name="Layer 1" xmlns="http://www.w3.org/2000/svg" viewBox="0 0 1080 1080"><defs><style>.cls-1{fill:#935fa6;}.cls-2{fill:#fff;}.cls-3{fill:#f6f61e;}.cls-4{fill:red;}</style></defs><title>BlackArtboard 1</title><polygon class="cls-1" points="540 64.14 53.17 427.67 239.12 1015.86 840.88 1015.86 1026.83 427.67 540 64.14"/><polygon class="cls-2" points="540.91 794.02 362.55 751.02 362.55 556.02 535.98 619.02 540.91 794.02"/><polygon class="cls-2" points="540.91 794.02 719.28 751.02 719.28 556.02 546.75 619.02 540.91 794.02"/><path class="cls-3" d="M244.89,339.8a6.38,6.38,0,0,1,6.66-3.53c11.41,1.66,42.32,12.82,57.63,83.75,19,88,1,148,0,154.33s-9.33,95.33.33,119,26.34,60.67,72,75a831.15,831.15,0,0,0,87.34,22s22,12.33,25.66,14-69.33.67-86.33-1.33-43-6.34-55.33-9-15.34-3.34-15.34-3.34-7-9.33-26.66-15.66-50-5.67-63.67-15.34-21.67-16-24.33-25,0-29,0-29,5.33,24.34,25.66,33,30,1,34-1.66,6.67-16.67.34-26.67-32.67-48-32.67-48,5.33-29.67-1-46-22-39.67-22-39.67-3.67-8,.33-14.66,12.67.33,17,5.66,14.34,18.34,18,29.34l3.67,11s-7-56.34-12-66.34-9.33-32-24-47.66-19.67-20.34-20-25,4.67-6,7.33-5.34,15,2.34,28.34,18,28.33,57,28.33,57-6.33-47.33-21.67-91C247.06,432.15,230.18,412,230.18,412s-2.33-5.67,5.67-3.67,17.67,9.07,24,16c5.74,6.29,16.66,31,16.66,38s5.68-31.1,1.67-52.67c-4.33-23.33-7-26-13.75-36.42-7.4-11.34-18.26-19.55-19.59-23.55C243.71,346.31,241.74,346.36,244.89,339.8Z"/><path class="cls-3" d="M836.65,339.8a6.37,6.37,0,0,0-6.65-3.53c-11.42,1.66-42.32,12.82-57.64,83.75-19,88-1,148,0,154.33s9.34,95.33-.33,119-26.33,60.67-72,75a831.33,831.33,0,0,1-87.33,22s-22,12.33-25.67,14,69.33.67,86.33-1.33,43-6.34,55.34-9S744,790.68,744,790.68s7-9.33,26.67-15.66,50-5.67,63.66-15.34,21.67-16,24.34-25,0-29,0-29-5.34,24.34-25.67,33-30,1-34-1.66-6.67-16.67-.33-26.67,32.66-48,32.66-48-5.33-29.67,1-46,22-39.67,22-39.67,3.67-8-.33-14.66-12.67.33-17,5.66S822.7,586,819,597l-3.67,11s7-56.34,12-66.34,9.34-32,24-47.66,19.67-20.34,20-25-4.66-6-7.33-5.34-15,2.34-28.33,18-28.34,57-28.34,57,6.34-47.33,21.67-91c5.46-15.53,22.33-35.66,22.33-35.66s2.34-5.67-5.66-3.67-17.67,9.07-24,16c-5.75,6.29-16.67,31-16.67,38s-5.67-31.1-1.67-52.67c4.34-23.33,7-26,13.76-36.42,7.39-11.34,18.25-19.55,19.58-23.55C837.84,346.31,839.81,346.36,836.65,339.8Z"/><path class="cls-3" d="M467.2,604.68,442.55,592s1.33-14.67-6.67-21.32-12.66-7.35-12.66-7.35l1.33-66s12.67-8,22-18,9.33-8,17.33-27.33.67-37.34-12.66-54-41.34-24.67-41.34-24.67,6.92,16.67,9.92,23.17,7.5,24.5,8.25,33.5-1.5,18-6.75,27.5-25.62,19.12-25.62,19.12-.32,4.47-.81,11.4c1.23-2.81,3.64-4.72,6.41-4.72,4,0,7.27,4,7.27,8.95s-3.26,8.94-7.27,8.94c-3.22,0-5.95-2.57-6.9-6.14-.32,4.46-.66,9.47-1,14.68,3.95.11,7.12,4.06,7.12,8.93s-3.26,9-7.28,9a6.25,6.25,0,0,1-1.06-.11c-.47,6.86-.91,13.49-1.29,19.21a6.07,6.07,0,0,1,2.35-.49c4,0,7.28,4,7.28,8.94s-3.26,9-7.28,9a6.18,6.18,0,0,1-3.34-1c0,.66-.05,1.13-.05,1.4,0,5.12,4.38,15,4.38,15s8.37,17.16,23,28.5,40.66,20,40.66,20l2.52,10.92H502V607.58Z"/><path class="cls-3" d="M613.62,604.68,638.27,592s-1.33-14.67,6.67-21.32,12.67-7.35,12.67-7.35l-1.34-66s-12.66-8-22-18-9.33-8-17.33-27.33-.67-37.34,12.67-54,41.33-24.67,41.33-24.67S664,390,661,396.52s-7.5,24.5-8.25,33.5,1.5,18,6.75,27.5,25.63,19.12,25.63,19.12.32,4.47.8,11.4c-1.22-2.81-3.63-4.72-6.4-4.72-4,0-7.28,4-7.28,8.95s3.26,8.94,7.28,8.94c3.21,0,5.94-2.57,6.9-6.14.31,4.46.66,9.47,1,14.68-3.94.11-7.11,4.06-7.11,8.93s3.25,9,7.27,9a6.14,6.14,0,0,0,1.06-.11c.47,6.86.92,13.49,1.29,19.21a6.07,6.07,0,0,0-2.35-.49c-4,0-7.27,4-7.27,8.94s3.25,9,7.27,9a6.21,6.21,0,0,0,3.35-1c0,.66,0,1.13,0,1.4,0,5.12-4.37,15-4.37,15s-8.38,17.16-23,28.5-40.67,20-40.67,20l-2.52,10.92H578.8V607.58Z"/><polygon class="cls-4" points="500.55 715.35 500.55 638.94 465.55 638.94 465.55 715.35 456.55 715.35 456.55 739.35 465.55 739.35 500.55 739.35 509.55 739.35 509.55 715.35 500.55 715.35"/><polygon class="cls-4" points="615.55 715.35 615.55 638.94 580.55 638.94 580.55 715.35 571.55 715.35 571.55 739.35 580.55 739.35 615.55 739.35 624.55 739.35 624.55 715.35 615.55 715.35"/><path class="cls-4" d="M401.05,664.88h36.07c-.15-2.15-.24-4.31-.24-6.49,0-52.56,46.65-95.33,104-95.33a110.22,110.22,0,0,1,57.28,15.81L612.08,589c20.16,17.4,32.77,42.08,32.77,69.4,0,2.18-.09,4.34-.24,6.49h36.07q.17-3.23.17-6.49A123.92,123.92,0,0,0,677,627.66l37.06-17.73-16.69-34.88L661.72,592.1A133.14,133.14,0,0,0,638,563.86l22.58-31.08-31.29-22.73L606,542.13a145.75,145.75,0,0,0-46.14-13.86V485.68H521.22v42.68a145.56,145.56,0,0,0-46.05,14l-22.53-32.67-31.83,21.94,22.46,32.59A133.41,133.41,0,0,0,420,592l-36-16.7-16.27,35.08,37,17.16a124,124,0,0,0-3.88,30.81Q400.88,661.66,401.05,664.88Z"/><polygon class="cls-3" points="540.91 218.59 549.13 244.86 575.73 244.86 554.21 261.09 562.43 287.35 540.91 271.12 519.39 287.35 527.61 261.09 506.1 244.86 532.69 244.86 540.91 218.59"/><polygon class="cls-3" points="660.25 255.93 668.47 282.19 695.07 282.19 673.55 298.42 681.77 324.68 660.25 308.45 638.73 324.68 646.95 298.42 625.43 282.19 652.03 282.19 660.25 255.93"/><polygon class="cls-3" points="420.91 256.26 429.13 282.52 455.73 282.52 434.21 298.75 442.43 325.02 420.91 308.79 399.39 325.02 407.61 298.75 386.1 282.52 412.69 282.52 420.91 256.26"/><path class="cls-3" d="M269.23,955.11q22.95-22.87,47.94-44.62-31.86-9-65.15-15.94A1054.58,1054.58,0,0,1,403,863.36q4.1,31.21,8.2,62.43A992.45,992.45,0,0,0,269.23,955.11Z"/><path class="cls-1" d="M401.55,865.06q4,29.73,7.9,59.44a992.64,992.64,0,0,0-135,27.6q20.08-19.79,41.72-38.71l4.14-3.59L315,908.3q-27.78-7.77-56.64-14a1053.16,1053.16,0,0,1,143.19-29.26m2.82-3.39a1054.87,1054.87,0,0,0-158.7,33.14q35,7,68.38,16.38-26.1,22.83-50,47a989.78,989.78,0,0,1,148.79-31.08l-8.49-65.41Z"/><path class="cls-3" d="M341.61,903.27q-6.06-30.71-12.13-61.4,37.59,9.17,73.4,20.91,4.08,31,8.15,62.06Q377.24,912.86,341.61,903.27Z"/><path class="cls-1" d="M331.59,844q35.71,8.81,69.81,19.94l7.8,58.69Q376.92,911.25,343,902.07,337.29,873,331.59,844m-4.23-4.19q6.43,32.36,12.88,64.7,37.29,10,72.62,22.61l-8.49-65.41q-37.5-12.33-77-21.9Z"/><path class="cls-3" d="M669.29,925.79l8.19-62.43a1054.58,1054.58,0,0,1,150.94,31.19q-33.27,6.9-65.14,15.94,25,21.72,47.93,44.62A992.31,992.31,0,0,0,669.29,925.79Z"/><path class="cls-1" d="M822.08,894.32q-28.85,6.2-56.63,14l-5.29,1.5q2.08,1.79,4.14,3.59,21.63,18.9,41.73,38.71a993.09,993.09,0,0,0-135-27.6q3.94-29.71,7.9-59.44a1053.16,1053.16,0,0,1,143.19,29.26m12.69.49a1054.87,1054.87,0,0,0-158.7-33.14l-8.49,65.41a989.52,989.52,0,0,1,148.79,31.08q-23.86-24.1-50-47,33.4-9.33,68.38-16.38Z"/><path class="cls-3" d="M677.56,862.78q35.79-11.71,73.4-20.91-6.06,30.69-12.13,61.4-35.6,9.56-69.42,21.57Q673.49,893.81,677.56,862.78Z"/><path class="cls-1" d="M748.85,844q-5.7,29.06-11.39,58.11-33.91,9.15-66.22,20.52L679,863.9q34.08-11.11,69.81-19.94m4.24-4.19q-39.48,9.53-77,21.9l-8.49,65.41q35.31-12.62,72.62-22.61,6.45-32.36,12.89-64.7Z"/><path class="cls-3" d="M341.5,902.69l-12.21-61.77a1088.52,1088.52,0,0,1,421.33-.11l-12.18,61.78A1025.37,1025.37,0,0,0,341.5,902.69Z"/><path class="cls-1" d="M748.69,842q-5.76,29.43-11.51,58.86a1027,1027,0,0,0-394.43.09q-5.76-29.42-11.53-58.84A1087.12,1087.12,0,0,1,748.69,842m3.86-2.29a1090,1090,0,0,0-425.19.1q6.43,32.36,12.88,64.7a1023.93,1023.93,0,0,1,399.46-.1q6.42-32.36,12.85-64.7Z"/><path class="cls-1" d="M392.19,844.27a14.45,14.45,0,0,0-8.73-.87,21.37,21.37,0,0,0-4,1.09,11,11,0,0,0-3.31,1.92,7.07,7.07,0,0,0-2,2.88,7.31,7.31,0,0,0-.23,4,4.77,4.77,0,0,0,2,3.23,10,10,0,0,0,3.91,1.55,32.35,32.35,0,0,0,5.22.54q2.88.07,5.86.26c2,.12,4,.32,5.89.62a18.78,18.78,0,0,1,5.34,1.61,10.74,10.74,0,0,1,6.22,8.82,11.79,11.79,0,0,1-.76,6.61,14.18,14.18,0,0,1-3.69,5,19.62,19.62,0,0,1-5.51,3.33,29.89,29.89,0,0,1-6.35,1.81,29.3,29.3,0,0,1-7.61.31,19.22,19.22,0,0,1-6.71-1.85,14.4,14.4,0,0,1-5.16-4.27,16.35,16.35,0,0,1-2.94-7l6-1.12a10.47,10.47,0,0,0,2.08,4.82,10.75,10.75,0,0,0,3.67,2.92,13.16,13.16,0,0,0,4.75,1.24,20.66,20.66,0,0,0,5.26-.23,24.5,24.5,0,0,0,4.2-1.09,12.88,12.88,0,0,0,3.65-2,7.77,7.77,0,0,0,2.38-3A7.62,7.62,0,0,0,402,871a5.82,5.82,0,0,0-1.9-3.71,9.59,9.59,0,0,0-3.88-1.89,25.63,25.63,0,0,0-5.19-.74l-5.82-.26q-3-.12-5.87-.45a21.51,21.51,0,0,1-5.34-1.25,10.74,10.74,0,0,1-4.15-2.78,10,10,0,0,1-2.32-5,12,12,0,0,1,.36-6.35,13,13,0,0,1,3.24-5,18.67,18.67,0,0,1,5.29-3.5,26.46,26.46,0,0,1,6.47-2,27.71,27.71,0,0,1,7.2-.32,16.38,16.38,0,0,1,6.13,1.77,13.06,13.06,0,0,1,4.57,4,15.93,15.93,0,0,1,2.53,6.39l-6.15.94C396.26,847.65,394.61,845.43,392.19,844.27Z"/><path class="cls-1" d="M427.45,832.86q10.17,18.72,19.69,37.66,5.52-20.47,11.72-40.87,4.53-.39,9.07-.73,1.77,23.49,3.53,47l-6,.47q-1.59-19.54-3.2-39.07h-.14q-6.11,20.16-11.54,40.41l-5.36.55q-9.42-18.72-19.49-37.24l-.14,0L430.4,880l-5.94.75q-3-23.37-6-46.74Q422.93,833.4,427.45,832.86Z"/><path class="cls-1" d="M492.57,827.39l1.14,23.47q11.76-12.33,24.16-24.35c2.87-.06,5.73-.11,8.6-.15q-10.41,9.63-20.38,19.49,11.2,13.68,21.74,27.63c-2.65,0-5.3.07-8,.12q-8.81-11.75-18.06-23.3-3.92,3.83-7.75,7.68.4,8.24.8,16.48-3.15.15-6.3.33-1.31-23.52-2.62-47C488.15,827.61,490.36,827.5,492.57,827.39Z"/><path class="cls-1" d="M584.07,827.46c1.07,0,2.22.12,3.46.21s2.45.22,3.65.4a27.58,27.58,0,0,1,3.36.7,8.9,8.9,0,0,1,2.62,1.15A12.51,12.51,0,0,1,601,834a10.2,10.2,0,0,1,1.28,6.11,10.79,10.79,0,0,1-8,10v.13a11.18,11.18,0,0,1,6.61,4.41,11.58,11.58,0,0,1,1.83,7.54,13.87,13.87,0,0,1-1.3,4.94,12.52,12.52,0,0,1-3.07,4.11,14.16,14.16,0,0,1-4.72,2.74,16,16,0,0,1-6.27.78q-11.45-.65-22.88-1,.72-23.55,1.43-47.1Q575,827,584.07,827.46Zm.76,20.32q5.53.3,8.08-1.42a6.74,6.74,0,0,0,2.79-5.48,8.09,8.09,0,0,0-.58-4,5.81,5.81,0,0,0-2.15-2.38,9.44,9.44,0,0,0-3.31-1.22,34.81,34.81,0,0,0-4-.45q-6.6-.35-13.2-.59-.27,7.49-.56,15Q578.34,847.46,584.83,847.78Zm2.09,21.73a9.3,9.3,0,0,0,6.71-1.85,8.18,8.18,0,0,0,2.78-6,7.51,7.51,0,0,0-.63-3.87,6.78,6.78,0,0,0-2.18-2.56,9.86,9.86,0,0,0-3.29-1.45,20.71,20.71,0,0,0-3.91-.59q-7.38-.39-14.75-.67-.3,8.14-.61,16.29Q579,869.07,586.92,869.51Z"/><path class="cls-1" d="M642.58,832.24c5,.57,8.66,2.25,10.91,5s3.09,6.31,2.52,10.67-2.28,7.6-5.09,9.73-6.63,2.87-11.48,2.28-9.82-1.08-14.73-1.56l-1.86,19.19c-2.1-.21-4.19-.4-6.29-.59q2.12-23.48,4.22-46.94Q631.68,831,642.58,832.24Zm-4.72,22.19c3.66.45,6.42.05,8.3-1.24a8.13,8.13,0,0,0,3.34-6.1,7.94,7.94,0,0,0-1.8-6.71c-1.54-1.67-4.19-2.72-7.93-3.14q-6.43-.72-12.88-1.34-.84,8.61-1.67,17.21Q631.53,853.72,637.86,854.43Z"/><path class="cls-1" d="M690.75,839c1.06.18,2.2.38,3.42.61s2.41.51,3.59.83a26.11,26.11,0,0,1,3.27,1.08,8.68,8.68,0,0,1,2.48,1.45,12.64,12.64,0,0,1,3.4,4.52,10.18,10.18,0,0,1,.57,6.21,10.83,10.83,0,0,1-9.1,9.07l0,.13a11.18,11.18,0,0,1,6.08,5.14,11.57,11.57,0,0,1,1,7.71,14,14,0,0,1-1.87,4.75,12.81,12.81,0,0,1-3.53,3.73,14,14,0,0,1-5,2.16,15.83,15.83,0,0,1-6.34.05q-11.32-2-22.68-3.64,3.42-23.31,6.85-46.62Q681.79,837.5,690.75,839Zm-1.58,20.28c3.65.62,6.38.47,8.21-.48a6.71,6.71,0,0,0,3.41-5.12,8,8,0,0,0-.12-4A5.77,5.77,0,0,0,698.8,847a9.24,9.24,0,0,0-3.15-1.59,32.83,32.83,0,0,0-4-.92q-6.54-1.11-13.09-2.12L676.3,857.2Q682.74,858.19,689.17,859.28Zm-.43,21.82a9.35,9.35,0,0,0,6.9-1.06,8.11,8.11,0,0,0,3.47-5.67,7.65,7.65,0,0,0-.18-3.92,6.68,6.68,0,0,0-1.88-2.79,10,10,0,0,0-3.11-1.83,20.43,20.43,0,0,0-3.84-1q-7.29-1.26-14.61-2.38L673,878.53Q680.89,879.75,688.74,881.1Z"/></svg>